<?xml version="1.0"?>
<svg xmlns="http://www.w3.org/2000/svg" width="144" height="24" viewBox="0 0 144 24" fill="none">
<path d="M4.35452 14.0797C4.58378 14.9171 4.9429 15.6893 5.43189 16.3977C5.92088 17.106 6.49468 17.7184 7.15594 18.239C7.8172 18.7582 8.55665 19.163 9.37693 19.4519C10.1959 19.7408 11.0506 19.8846 11.9425 19.8846C13.2928 19.8846 14.4709 19.6024 15.478 19.0405C16.4838 18.4773 17.2895 17.8356 17.8925 17.1126H22.7652C22.3053 18.0952 21.709 19.0046 20.9762 19.842C20.2434 20.6795 19.4098 21.4091 18.4756 22.0295C17.5413 22.6513 16.5209 23.1346 15.4144 23.4807C14.3079 23.8269 13.151 24 11.9438 24C10.3059 24 8.7594 23.6818 7.30834 23.0467C5.85595 22.4116 4.59173 21.5529 3.51436 20.4691C2.437 19.3867 1.58093 18.1152 0.948825 16.6573C0.316717 15.1994 0 13.647 0 12C0 10.3544 0.315392 8.80195 0.948825 7.34273C1.58093 5.88483 2.43567 4.61334 3.51436 3.5309C4.59173 2.44847 5.85727 1.5897 7.30834 0.95329C8.7594 0.318208 10.3046 0 11.9438 0C13.5817 0 15.1269 0.318208 16.5792 0.95329C18.0303 1.58837 19.2959 2.44713 20.3732 3.5309C21.4506 4.61334 22.3067 5.88483 22.9388 7.34273C23.5709 8.80195 23.8876 10.353 23.8876 12C23.8876 12.3755 23.873 12.7363 23.8438 13.0824C23.8147 13.4286 23.7723 13.7615 23.714 14.0783H4.35452V14.0797ZM19.5304 9.96428C19.2998 9.12682 18.9487 8.34661 18.4743 7.62499C17.9998 6.90336 17.4247 6.28159 16.7502 5.76234C16.0744 5.24309 15.3336 4.83835 14.5292 4.54943C13.7248 4.26051 12.8621 4.11672 11.9425 4.11672C11.0506 4.11672 10.1959 4.2685 9.37693 4.57206C8.55797 4.87562 7.81057 5.28703 7.13473 5.80628C6.4589 6.32553 5.88377 6.94064 5.41069 7.64762C4.93627 8.35593 4.58378 9.12814 4.35452 9.9656H19.5304V9.96428Z" fill="black"/>
<path d="M24.6177 2.86L27.549 0.00146484L36.258 9.05505L44.967 0.00146484L47.8983 2.86L39.1045 12.0001L47.8997 21.1403L44.9684 23.9988L36.2593 14.9452L27.5503 23.9988L24.619 21.1403L33.4129 12.0001L24.6177 2.86Z" fill="black"/>
<path d="M50.4438 11.3929C50.4438 9.8338 50.738 8.35992 51.3277 6.97393C51.9161 5.58793 52.7284 4.37502 53.7634 3.33518C54.7984 2.29535 56.0056 1.48053 57.3851 0.888052C58.7646 0.296906 60.2302 0 61.7834 0C63.3365 0 64.8008 0.296906 66.1816 0.888052C67.5611 1.48053 68.7683 2.29535 69.8033 3.33518C70.8383 4.37502 71.6493 5.58793 72.239 6.97393C72.8274 8.35992 73.1229 9.83246 73.1229 11.3929V23.305H68.6385V11.1759C68.6385 10.2226 68.4583 9.32786 68.0991 8.49041C67.74 7.65295 67.251 6.92466 66.6335 6.3029C66.0146 5.68246 65.2898 5.19117 64.4562 4.83036C63.6227 4.46954 62.7322 4.28847 61.7834 4.28847C60.8345 4.28847 59.944 4.46954 59.1105 4.83036C58.2769 5.19117 57.5508 5.68246 56.9332 6.3029C56.3144 6.92466 55.8267 7.65295 55.4676 8.49041C55.1085 9.32786 54.9282 10.2226 54.9282 11.1759V23.305H50.4438V11.3929Z" fill="black"/>
<path d="M80.5811 14.0797C80.8103 14.9171 81.1695 15.6893 81.6584 16.3977C82.1474 17.106 82.7212 17.7184 83.3825 18.239C84.0438 18.7582 84.7832 19.163 85.6035 19.4519C86.4224 19.7408 87.2772 19.8846 88.169 19.8846C89.5194 19.8846 90.6975 19.6024 91.7046 19.0405C92.7104 18.4773 93.5161 17.8356 94.1191 17.1126H98.9917C98.5319 18.0952 97.9356 19.0046 97.2027 19.842C96.4699 20.6795 95.6364 21.4091 94.7021 22.0295C93.7679 22.6513 92.7475 23.1346 91.641 23.4807C90.5345 23.8269 89.3776 24 88.1703 24C86.5324 24 84.986 23.6818 83.5349 23.0467C82.0825 22.4116 80.8183 21.5529 79.7409 20.4691C78.6636 19.3867 77.8075 18.1152 77.1754 16.6573C76.5433 15.1994 76.2266 13.647 76.2266 12C76.2266 10.3544 76.542 8.80195 77.1754 7.34273C77.8075 5.88483 78.6622 4.61334 79.7409 3.5309C80.8183 2.44847 82.0838 1.5897 83.5349 0.95329C84.986 0.318208 86.5311 0 88.1703 0C89.8083 0 91.3534 0.318208 92.8058 0.95329C94.2569 1.58837 95.5224 2.44713 96.5998 3.5309C97.6771 4.61334 98.5332 5.88483 99.1653 7.34273C99.7974 8.80195 100.114 10.353 100.114 12C100.114 12.3755 100.1 12.7363 100.07 13.0824C100.041 13.4286 99.9989 13.7615 99.9405 14.0783H80.5811V14.0797ZM95.757 9.96428C95.5264 9.12682 95.1752 8.34661 94.7008 7.62499C94.2264 6.90336 93.6513 6.28159 92.9768 5.76234C92.3009 5.24309 91.5601 4.83835 90.7558 4.54943C89.9514 4.26051 89.0887 4.11672 88.169 4.11672C87.2772 4.11672 86.4224 4.2685 85.6035 4.57206C84.7845 4.87562 84.0371 5.28703 83.3613 5.80628C82.6855 6.32553 82.1103 6.94064 81.6372 7.64762C81.1628 8.35593 80.8103 9.12814 80.5811 9.9656H95.757V9.96428Z" fill="black"/>
<path d="M112.701 23.9988C110.085 23.9988 107.821 23.385 105.911 22.1575C103.998 20.9299 102.656 19.2483 101.879 17.1114H106.665C107.269 18.0354 108.109 18.7504 109.186 19.2563C110.264 19.7623 111.421 20.0139 112.657 20.0139C114.152 20.0139 115.309 19.7476 116.128 19.2124C116.947 18.6785 117.356 17.9489 117.356 17.0249C117.356 16.274 117.061 15.6975 116.472 15.2927C115.883 14.888 114.898 14.5564 113.518 14.2968L110.155 13.6471C107.51 13.1558 105.585 12.3769 104.377 11.3078C103.17 10.24 102.566 8.79543 102.566 6.97539C102.566 5.96485 102.788 5.03286 103.234 4.18076C103.679 3.32866 104.297 2.59239 105.088 1.97195C105.877 1.35151 106.818 0.866881 107.912 0.520714C109.004 0.174547 110.211 0.00146484 111.533 0.00146484C113.976 0.00146484 116.089 0.585953 117.872 1.75626C119.654 2.92524 120.904 4.55089 121.623 6.62922H116.838C116.349 5.79177 115.637 5.14204 114.703 4.68004C113.769 4.21804 112.726 3.98637 111.577 3.98637C110.197 3.98637 109.127 4.23934 108.365 4.74395C107.603 5.24988 107.222 5.96485 107.222 6.88752C107.222 7.55189 107.517 8.08579 108.106 8.49054C108.695 8.89529 109.665 9.2268 111.016 9.48643L114.38 10.1362C116.994 10.6274 118.921 11.429 120.158 12.5407C121.393 13.6524 122.011 15.1183 122.011 16.937C122.011 17.9768 121.781 18.9235 121.321 19.7742C120.861 20.6263 120.221 21.3706 119.402 22.0057C118.583 22.6408 117.599 23.1321 116.448 23.4782C115.302 23.8257 114.052 23.9988 112.701 23.9988Z" fill="black"/>
<path d="M134.69 23.9988C132.074 23.9988 129.81 23.385 127.899 22.1575C125.987 20.9299 124.645 19.2483 123.868 17.1114H128.653C129.258 18.0354 130.098 18.7504 131.175 19.2563C132.253 19.7623 133.409 20.0139 134.646 20.0139C136.141 20.0139 137.297 19.7476 138.116 19.2124C138.935 18.6785 139.345 17.9489 139.345 17.0249C139.345 16.274 139.049 15.6975 138.461 15.2927C137.871 14.888 136.887 14.5564 135.507 14.2968L132.144 13.6471C129.499 13.1558 127.573 12.3769 126.366 11.3078C125.159 10.24 124.555 8.79543 124.555 6.97539C124.555 5.96485 124.777 5.03286 125.222 4.18076C125.668 3.32866 126.285 2.59239 127.076 1.97195C127.866 1.35151 128.807 0.866881 129.9 0.520714C130.992 0.174547 132.2 0.00146484 133.522 0.00146484C135.964 0.00146484 138.078 0.585953 139.86 1.75626C141.643 2.92524 142.892 4.55089 143.612 6.62922H138.827C138.338 5.79177 137.626 5.14204 136.692 4.68004C135.758 4.21804 134.715 3.98637 133.566 3.98637C132.186 3.98637 131.116 4.23934 130.354 4.74395C129.592 5.24988 129.211 5.96485 129.211 6.88752C129.211 7.55189 129.505 8.08579 130.095 8.49054C130.684 8.89529 131.654 9.2268 133.005 9.48643L136.369 10.1362C138.983 10.6274 140.91 11.429 142.146 12.5407C143.381 13.6524 144 15.1183 144 16.937C144 17.9768 143.77 18.9235 143.31 19.7742C142.85 20.6263 142.21 21.3706 141.391 22.0057C140.572 22.6408 139.587 23.1321 138.437 23.4782C137.291 23.8257 136.041 23.9988 134.69 23.9988Z" fill="black"/>
</svg>
