<?xml version="1.0"?>
<svg xmlns="http://www.w3.org/2000/svg" width="80" height="80" viewBox="0 0 80 80" fill="none">
<path d="M39.3128 37.3793C39.3128 36.3125 38.448 35.4478 37.3813 35.4478C36.3145 35.4478 35.4497 36.3125 35.4497 37.3793C35.4497 38.4461 36.3145 39.3109 37.3813 39.3109C38.448 39.3109 39.3128 38.4461 39.3128 37.3793Z" fill="#070E20"/>
<path d="M44.5521 37.3793C44.5521 36.3125 43.6873 35.4478 42.6205 35.4478C41.5538 35.4478 40.689 36.3125 40.689 37.3793C40.689 38.4461 41.5538 39.3109 42.6205 39.3109C43.6873 39.3109 44.5521 38.4461 44.5521 37.3793Z" fill="#070E20"/>
<path d="M22.6419 5.93067C22.6419 5.38587 22.2002 4.94421 21.6554 4.94421C21.1106 4.94421 20.6689 5.38587 20.6689 5.93067C20.6689 6.47548 21.1106 6.91713 21.6554 6.91713C22.2002 6.91713 22.6419 6.47548 22.6419 5.93067Z" fill="#070E20"/>
<path d="M27.8836 5.93067C27.8836 5.38587 27.4419 4.94421 26.8971 4.94421C26.3523 4.94421 25.9106 5.38587 25.9106 5.93067C25.9106 6.47548 26.3523 6.91713 26.8971 6.91713C27.4419 6.91713 27.8836 6.47548 27.8836 5.93067Z" fill="#070E20" stroke="white" stroke-width="0.0703048" stroke-miterlimit="10"/>
<path d="M33.1248 5.93067C33.1248 5.38587 32.6831 4.94421 32.1383 4.94421C31.5935 4.94421 31.1519 5.38587 31.1519 5.93067C31.1519 6.47548 31.5935 6.91713 32.1383 6.91713C32.6831 6.91713 33.1248 6.47548 33.1248 5.93067Z" fill="#070E20" stroke="white" stroke-width="0.0703048" stroke-miterlimit="10"/>
<path d="M27.8836 11.1722C27.8836 10.6274 27.4419 10.1858 26.8971 10.1858C26.3523 10.1858 25.9106 10.6274 25.9106 11.1722C25.9106 11.7171 26.3523 12.1587 26.8971 12.1587C27.4419 12.1587 27.8836 11.7171 27.8836 11.1722Z" fill="#070E20" stroke="white" stroke-width="0.0703048" stroke-miterlimit="10"/>
<path d="M33.1248 11.1722C33.1248 10.6274 32.6831 10.1858 32.1383 10.1858C31.5935 10.1858 31.1519 10.6274 31.1519 11.1722C31.1519 11.7171 31.5935 12.1587 32.1383 12.1587C32.6831 12.1587 33.1248 11.7171 33.1248 11.1722Z" fill="#070E20" stroke="white" stroke-width="0.0703048" stroke-miterlimit="10"/>
<path d="M22.6419 16.4138C22.6419 15.869 22.2002 15.4274 21.6554 15.4274C21.1106 15.4274 20.6689 15.869 20.6689 16.4138C20.6689 16.9586 21.1106 17.4003 21.6554 17.4003C22.2002 17.4003 22.6419 16.9586 22.6419 16.4138Z" fill="#070E20" stroke="white" stroke-width="0.0703048" stroke-miterlimit="10"/>
<path d="M33.1248 16.4138C33.1248 15.869 32.6831 15.4274 32.1383 15.4274C31.5935 15.4274 31.1519 15.869 31.1519 16.4138C31.1519 16.9586 31.5935 17.4003 32.1383 17.4003C32.6831 17.4003 33.1248 16.9586 33.1248 16.4138Z" fill="#070E20"/>
<path d="M17.4011 21.6554C17.4011 21.1106 16.9595 20.6689 16.4147 20.6689C15.8699 20.6689 15.4282 21.1106 15.4282 21.6554C15.4282 22.2002 15.8699 22.6419 16.4147 22.6419C16.9595 22.6419 17.4011 22.2002 17.4011 21.6554Z" fill="#070E20"/>
<path d="M12.159 26.897C12.159 26.3522 11.7173 25.9105 11.1725 25.9105C10.6277 25.9105 10.186 26.3522 10.186 26.897C10.186 27.4418 10.6277 27.8834 11.1725 27.8834C11.7173 27.8834 12.159 27.4418 12.159 26.897Z" fill="#070E20"/>
<path d="M33.1248 37.3801C33.1248 36.8353 32.6831 36.3937 32.1383 36.3937C31.5935 36.3937 31.1519 36.8353 31.1519 37.3801C31.1519 37.9249 31.5935 38.3666 32.1383 38.3666C32.6831 38.3666 33.1248 37.9249 33.1248 37.3801Z" fill="#070E20"/>
<path d="M48.8484 37.3801C48.8484 36.8353 48.4068 36.3937 47.8619 36.3937C47.3171 36.3937 46.8755 36.8353 46.8755 37.3801C46.8755 37.9249 47.3171 38.3666 47.8619 38.3666C48.4068 38.3666 48.8484 37.9249 48.8484 37.3801Z" fill="#070E20"/>
<path d="M33.1248 42.6217C33.1248 42.0769 32.6831 41.6353 32.1383 41.6353C31.5935 41.6353 31.1519 42.0769 31.1519 42.6217C31.1519 43.1665 31.5935 43.6082 32.1383 43.6082C32.6831 43.6082 33.1248 43.1665 33.1248 42.6217Z" fill="#070E20"/>
<path d="M48.8484 42.6217C48.8484 42.0769 48.4068 41.6353 47.8619 41.6353C47.3171 41.6353 46.8755 42.0769 46.8755 42.6217C46.8755 43.1665 47.3171 43.6082 47.8619 43.6082C48.4068 43.6082 48.8484 43.1665 48.8484 42.6217Z" fill="#070E20"/>
<path d="M5.93398 31.6484H5.93226C5.66171 31.6484 5.44238 31.8678 5.44238 32.1383V32.14C5.44238 32.4106 5.66171 32.6299 5.93226 32.6299H5.93398C6.20454 32.6299 6.42386 32.4106 6.42386 32.14V32.1383C6.42386 31.8678 6.20454 31.6484 5.93398 31.6484Z" fill="#070E20"/>
<path d="M32.14 21.1652H32.1383C31.8678 21.1652 31.6484 21.3845 31.6484 21.655V21.6568C31.6484 21.9273 31.8678 22.1466 32.1383 22.1466H32.14C32.4106 22.1466 32.6299 21.9273 32.6299 21.6568V21.655C32.6299 21.3845 32.4106 21.1652 32.14 21.1652Z" fill="#070E20" stroke="white" stroke-width="0.0351524" stroke-miterlimit="10"/>
<path d="M16.4149 21.1652H16.4132C16.1427 21.1652 15.9233 21.3845 15.9233 21.655V21.6568C15.9233 21.9273 16.1427 22.1466 16.4132 22.1466H16.4149C16.6855 22.1466 16.9048 21.9273 16.9048 21.6568V21.655C16.9048 21.3845 16.6855 21.1652 16.4149 21.1652Z" fill="#070E20" stroke="white" stroke-width="0.0351524" stroke-miterlimit="10"/>
<path d="M32.14 10.6838H32.1383C31.8678 10.6838 31.6484 10.9032 31.6484 11.1737V11.1754C31.6484 11.446 31.8678 11.6653 32.1383 11.6653H32.14C32.4106 11.6653 32.6299 11.446 32.6299 11.1754V11.1737C32.6299 10.9032 32.4106 10.6838 32.14 10.6838Z" fill="#070E20" stroke="white" stroke-width="0.0351524" stroke-miterlimit="10"/>
<path d="M26.8974 10.6838H26.8956C26.6251 10.6838 26.4058 10.9032 26.4058 11.1737V11.1754C26.4058 11.446 26.6251 11.6653 26.8956 11.6653H26.8974C27.1679 11.6653 27.3872 11.446 27.3872 11.1754V11.1737C27.3872 10.9032 27.1679 10.6838 26.8974 10.6838Z" fill="#070E20" stroke="white" stroke-width="0.0351524" stroke-miterlimit="10"/>
<path d="M32.14 5.44214H32.1383C31.8678 5.44214 31.6484 5.66146 31.6484 5.93202V5.93374C31.6484 6.20429 31.8678 6.42362 32.1383 6.42362H32.14C32.4106 6.42362 32.6299 6.20429 32.6299 5.93374V5.93202C32.6299 5.66146 32.4106 5.44214 32.14 5.44214Z" fill="#070E20" stroke="white" stroke-width="0.0351524" stroke-miterlimit="10"/>
<path d="M26.8974 5.44214H26.8956C26.6251 5.44214 26.4058 5.66146 26.4058 5.93202V5.93374C26.4058 6.20429 26.6251 6.42362 26.8956 6.42362H26.8974C27.1679 6.42362 27.3872 6.20429 27.3872 5.93374V5.93202C27.3872 5.66146 27.1679 5.44214 26.8974 5.44214Z" fill="#070E20" stroke="white" stroke-width="0.0351524" stroke-miterlimit="10"/>
<path d="M21.6571 5.44214H21.6554C21.3849 5.44214 21.1655 5.66146 21.1655 5.93202V5.93374C21.1655 6.20429 21.3849 6.42362 21.6554 6.42362H21.6571C21.9277 6.42362 22.147 6.20429 22.147 5.93374V5.93202C22.147 5.66146 21.9277 5.44214 21.6571 5.44214Z" fill="#070E20" stroke="white" stroke-width="0.0351524" stroke-miterlimit="10"/>
<path d="M16.4149 5.44214H16.4132C16.1427 5.44214 15.9233 5.66146 15.9233 5.93202V5.93374C15.9233 6.20429 16.1427 6.42362 16.4132 6.42362H16.4149C16.6855 6.42362 16.9048 6.20429 16.9048 5.93374V5.93202C16.9048 5.66146 16.6855 5.44214 16.4149 5.44214Z" fill="#070E20" stroke="white" stroke-width="0.0351524" stroke-miterlimit="10"/>
<path d="M23.5892 5.93156C23.5892 4.86479 22.7244 4 21.6576 4C20.5909 4 19.7261 4.86479 19.7261 5.93156C19.7261 6.99833 20.5909 7.86312 21.6576 7.86312C22.7244 7.86312 23.5892 6.99833 23.5892 5.93156Z" fill="#070E20"/>
<path d="M28.8289 5.93156C28.8289 4.86479 27.9642 4 26.8974 4C25.8306 4 24.9658 4.86479 24.9658 5.93156C24.9658 6.99833 25.8306 7.86312 26.8974 7.86312C27.9642 7.86312 28.8289 6.99833 28.8289 5.93156Z" fill="#070E20"/>
<path d="M34.0706 5.93156C34.0706 4.86479 33.2059 4 32.1391 4C31.0723 4 30.2075 4.86479 30.2075 5.93156C30.2075 6.99833 31.0723 7.86312 32.1391 7.86312C33.2059 7.86312 34.0706 6.99833 34.0706 5.93156Z" fill="#070E20"/>
<path d="M28.8289 11.1731C28.8289 10.1064 27.9642 9.24158 26.8974 9.24158C25.8306 9.24158 24.9658 10.1064 24.9658 11.1731C24.9658 12.2399 25.8306 13.1047 26.8974 13.1047C27.9642 13.1047 28.8289 12.2399 28.8289 11.1731Z" fill="#070E20"/>
<path d="M34.0706 11.1731C34.0706 10.1064 33.2059 9.24158 32.1391 9.24158C31.0723 9.24158 30.2075 10.1064 30.2075 11.1731C30.2075 12.2399 31.0723 13.1047 32.1391 13.1047C33.2059 13.1047 34.0706 12.2399 34.0706 11.1731Z" fill="#070E20"/>
<path d="M23.5892 16.4147C23.5892 15.3479 22.7244 14.4832 21.6576 14.4832C20.5909 14.4832 19.7261 15.3479 19.7261 16.4147C19.7261 17.4815 20.5909 18.3463 21.6576 18.3463C22.7244 18.3463 23.5892 17.4815 23.5892 16.4147Z" fill="#070E20"/>
<path d="M34.0706 16.4147C34.0706 15.3479 33.2059 14.4832 32.1391 14.4832C31.0723 14.4832 30.2075 15.3479 30.2075 16.4147C30.2075 17.4815 31.0723 18.3463 32.1391 18.3463C33.2059 18.3463 34.0706 17.4815 34.0706 16.4147Z" fill="#070E20"/>
<path d="M18.347 21.6563C18.347 20.5895 17.4822 19.7247 16.4155 19.7247C15.3487 19.7247 14.4839 20.5895 14.4839 21.6563C14.4839 22.7231 15.3487 23.5879 16.4155 23.5879C17.4822 23.5879 18.347 22.7231 18.347 21.6563Z" fill="#070E20"/>
<path d="M17.4011 5.93067C17.4011 5.38587 16.9595 4.94421 16.4147 4.94421C15.8699 4.94421 15.4282 5.38587 15.4282 5.93067C15.4282 6.47548 15.8699 6.91713 16.4147 6.91713C16.9595 6.91713 17.4011 6.47548 17.4011 5.93067Z" fill="#070E20"/>
<path d="M33.1248 21.6554C33.1248 21.1106 32.6831 20.6689 32.1383 20.6689C31.5935 20.6689 31.1519 21.1106 31.1519 21.6554C31.1519 22.2002 31.5935 22.6419 32.1383 22.6419C32.6831 22.6419 33.1248 22.2002 33.1248 21.6554Z" fill="#070E20"/>
<path d="M6.91823 32.1386C6.91823 31.5938 6.47658 31.1521 5.93177 31.1521C5.38696 31.1521 4.94531 31.5938 4.94531 32.1386C4.94531 32.6834 5.38696 33.125 5.93177 33.125C6.47658 33.125 6.91823 32.6834 6.91823 32.1386Z" fill="#070E20"/>
<path d="M32.14 26.4069H32.1383C31.8678 26.4069 31.6484 26.6262 31.6484 26.8967V26.8985C31.6484 27.169 31.8678 27.3883 32.1383 27.3883H32.14C32.4106 27.3883 32.6299 27.169 32.6299 26.8985V26.8967C32.6299 26.6262 32.4106 26.4069 32.14 26.4069Z" fill="#070E20"/>
<path d="M11.1742 5.44214H11.1725C10.9019 5.44214 10.6826 5.66146 10.6826 5.93202V5.93374C10.6826 6.20429 10.9019 6.42362 11.1725 6.42362H11.1742C11.4448 6.42362 11.6641 6.20429 11.6641 5.93374V5.93202C11.6641 5.66146 11.4448 5.44214 11.1742 5.44214Z" fill="#070E20"/>
<path d="M56.4137 74.0686C56.4137 75.1353 57.2785 76.0001 58.3453 76.0001C59.4121 76.0001 60.2769 75.1353 60.2769 74.0686C60.2769 73.0018 59.4121 72.137 58.3453 72.137C57.2785 72.137 56.4137 73.0018 56.4137 74.0686Z" fill="#070E20"/>
<path d="M51.173 74.0686C51.173 75.1353 52.0378 76.0001 53.1046 76.0001C54.1713 76.0001 55.0361 75.1353 55.0361 74.0686C55.0361 73.0018 54.1713 72.137 53.1046 72.137C52.0378 72.137 51.173 73.0018 51.173 74.0686Z" fill="#070E20"/>
<path d="M45.9308 74.0686C45.9308 75.1353 46.7956 76.0001 47.8624 76.0001C48.9292 76.0001 49.7939 75.1353 49.7939 74.0686C49.7939 73.0018 48.9292 72.137 47.8624 72.137C46.7956 72.137 45.9308 73.0018 45.9308 74.0686Z" fill="#070E20"/>
<path d="M51.173 68.8288C51.173 69.8956 52.0378 70.7604 53.1046 70.7604C54.1713 70.7604 55.0361 69.8956 55.0361 68.8288C55.0361 67.762 54.1713 66.8973 53.1046 66.8973C52.0378 66.8973 51.173 67.762 51.173 68.8288Z" fill="#070E20"/>
<path d="M45.9308 68.8288C45.9308 69.8956 46.7956 70.7604 47.8624 70.7604C48.9292 70.7604 49.7939 69.8956 49.7939 68.8288C49.7939 67.762 48.9292 66.8973 47.8624 66.8973C46.7956 66.8973 45.9308 67.762 45.9308 68.8288Z" fill="#070E20"/>
<path d="M56.4137 63.5872C56.4137 64.654 57.2785 65.5188 58.3453 65.5188C59.4121 65.5188 60.2769 64.654 60.2769 63.5872C60.2769 62.5205 59.4121 61.6557 58.3453 61.6557C57.2785 61.6557 56.4137 62.5205 56.4137 63.5872Z" fill="#070E20"/>
<path d="M45.9308 63.5872C45.9308 64.654 46.7956 65.5188 47.8624 65.5188C48.9292 65.5188 49.7939 64.654 49.7939 63.5872C49.7939 62.5205 48.9292 61.6557 47.8624 61.6557C46.7956 61.6557 45.9308 62.5205 45.9308 63.5872Z" fill="#070E20"/>
<path d="M61.6544 58.3457C61.6544 59.4124 62.5192 60.2772 63.586 60.2772C64.6528 60.2772 65.5176 59.4124 65.5176 58.3457C65.5176 57.2789 64.6528 56.4141 63.586 56.4141C62.5192 56.4141 61.6544 57.2789 61.6544 58.3457Z" fill="#070E20"/>
<path d="M62.6023 74.0694C62.6023 74.6143 63.0439 75.0559 63.5887 75.0559C64.1335 75.0559 64.5752 74.6143 64.5752 74.0694C64.5752 73.5246 64.1335 73.083 63.5887 73.083C63.0439 73.083 62.6023 73.5246 62.6023 74.0694Z" fill="#070E20"/>
<path d="M46.8772 58.3464C46.8772 58.8912 47.3188 59.3329 47.8636 59.3329C48.4084 59.3329 48.8501 58.8912 48.8501 58.3464C48.8501 57.8016 48.4084 57.36 47.8636 57.36C47.3188 57.36 46.8772 57.8016 46.8772 58.3464Z" fill="#070E20"/>
<path d="M73.0837 47.8633C73.0837 48.4081 73.5254 48.8497 74.0702 48.8497C74.615 48.8497 75.0566 48.4081 75.0566 47.8633C75.0566 47.3185 74.615 46.8768 74.0702 46.8768C73.5254 46.8768 73.0837 47.3185 73.0837 47.8633Z" fill="#070E20"/>
<path d="M47.86 53.5934H47.8617C48.1322 53.5934 48.3516 53.3741 48.3516 53.1035V53.1018C48.3516 52.8312 48.1322 52.6119 47.8617 52.6119H47.86C47.5894 52.6119 47.3701 52.8312 47.3701 53.1018V53.1035C47.3701 53.3741 47.5894 53.5934 47.86 53.5934Z" fill="#070E20"/>
<path d="M68.8258 53.5934H68.8275C69.0981 53.5934 69.3174 53.3741 69.3174 53.1035V53.1018C69.3174 52.8312 69.0981 52.6119 68.8275 52.6119H68.8258C68.5552 52.6119 68.3359 52.8312 68.3359 53.1018V53.1035C68.3359 53.3741 68.5552 53.5934 68.8258 53.5934Z" fill="#070E20" stroke="white" stroke-width="0.0351524" stroke-miterlimit="10"/>
<path d="M68.8258 74.5597H68.8275C69.0981 74.5597 69.3174 74.3404 69.3174 74.0698V74.0681C69.3174 73.7975 69.0981 73.5782 68.8275 73.5782H68.8258C68.5552 73.5782 68.3359 73.7975 68.3359 74.0681V74.0698C68.3359 74.3404 68.5552 74.5597 68.8258 74.5597Z" fill="#070E20"/>
<path d="M5.93156 56.4141C4.86479 56.4141 4 57.2789 4 58.3457C4 59.4124 4.86479 60.2772 5.93156 60.2772C6.99833 60.2772 7.86312 59.4124 7.86312 58.3457C7.86312 57.2789 6.99833 56.4141 5.93156 56.4141Z" fill="#070E20"/>
<path d="M5.93157 51.1725C4.86479 51.1725 4 52.0373 4 53.1041C4 54.1709 4.86479 55.0356 5.93157 55.0356C6.99834 55.0356 7.86313 54.1709 7.86313 53.1041C7.86313 52.0373 6.99834 51.1725 5.93157 51.1725Z" fill="#070E20"/>
<path d="M5.93156 45.9309C4.86479 45.9309 4 46.7957 4 47.8625C4 48.9293 4.86479 49.7941 5.93156 49.7941C6.99833 49.7941 7.86312 48.9293 7.86312 47.8625C7.86312 46.7957 6.99833 45.9309 5.93156 45.9309Z" fill="#070E20"/>
<path d="M11.1742 51.1725C10.1075 51.1725 9.24268 52.0373 9.24268 53.1041C9.24268 54.1709 10.1075 55.0356 11.1742 55.0356C12.241 55.0356 13.1058 54.1709 13.1058 53.1041C13.1058 52.0373 12.241 51.1725 11.1742 51.1725Z" fill="#070E20"/>
<path d="M11.1742 45.9309C10.1075 45.9309 9.24268 46.7957 9.24268 47.8625C9.24268 48.9293 10.1075 49.7941 11.1742 49.7941C12.241 49.7941 13.1058 48.9293 13.1058 47.8625C13.1058 46.7957 12.241 45.9309 11.1742 45.9309Z" fill="#070E20"/>
<path d="M16.4154 56.4141C15.3487 56.4141 14.4839 57.2789 14.4839 58.3457C14.4839 59.4124 15.3487 60.2772 16.4154 60.2772C17.4822 60.2772 18.347 59.4124 18.347 58.3457C18.347 57.2789 17.4822 56.4141 16.4154 56.4141Z" fill="#070E20"/>
<path d="M16.4154 45.9309C15.3487 45.9309 14.4839 46.7957 14.4839 47.8625C14.4839 48.9293 15.3487 49.7941 16.4154 49.7941C17.4822 49.7941 18.347 48.9293 18.347 47.8625C18.347 46.7957 17.4822 45.9309 16.4154 45.9309Z" fill="#070E20"/>
<path d="M21.6576 61.6557C20.5909 61.6557 19.7261 62.5205 19.7261 63.5872C19.7261 64.654 20.5909 65.5188 21.6576 65.5188C22.7244 65.5188 23.5892 64.654 23.5892 63.5872C23.5892 62.5205 22.7244 61.6557 21.6576 61.6557Z" fill="#070E20"/>
<path d="M5.93177 62.6015C5.38697 62.6015 4.94531 63.0432 4.94531 63.588C4.94531 64.1328 5.38697 64.5745 5.93177 64.5745C6.47658 64.5745 6.91823 64.1328 6.91823 63.588C6.91823 63.0432 6.47658 62.6015 5.93177 62.6015Z" fill="#070E20"/>
<path d="M21.6534 46.8768C21.1086 46.8768 20.667 47.3185 20.667 47.8633C20.667 48.4081 21.1086 48.8497 21.6534 48.8497C22.1983 48.8497 22.6399 48.4081 22.6399 47.8633C22.6399 47.3185 22.1983 46.8768 21.6534 46.8768Z" fill="#070E20"/>
<path d="M32.1383 73.083C31.5935 73.083 31.1519 73.5246 31.1519 74.0695C31.1519 74.6143 31.5935 75.0559 32.1383 75.0559C32.6831 75.0559 33.1248 74.6143 33.1248 74.0695C33.1248 73.5246 32.6831 73.083 32.1383 73.083Z" fill="#070E20"/>
<path d="M26.4058 47.8619V47.8636C26.4058 48.1342 26.6251 48.3535 26.8956 48.3535H26.8974C27.1679 48.3535 27.3872 48.1342 27.3872 47.8636V47.8619C27.3872 47.5914 27.1679 47.372 26.8974 47.372H26.8956C26.6251 47.372 26.4058 47.5914 26.4058 47.8619Z" fill="#070E20"/>
<path d="M26.4077 68.8265V68.8282C26.4077 69.0988 26.627 69.3181 26.8976 69.3181H26.8993C27.1699 69.3181 27.3892 69.0988 27.3892 68.8282V68.8265C27.3892 68.556 27.1699 68.3366 26.8993 68.3366H26.8976C26.627 68.3366 26.4077 68.556 26.4077 68.8265Z" fill="#070E20" stroke="white" stroke-width="0.0351524" stroke-miterlimit="10"/>
<path d="M5.44238 68.8265V68.8282C5.44238 69.0988 5.66171 69.3181 5.93226 69.3181H5.93399C6.20454 69.3181 6.42386 69.0988 6.42386 68.8282V68.8265C6.42386 68.556 6.20454 68.3366 5.93399 68.3366H5.93226C5.66171 68.3366 5.44238 68.556 5.44238 68.8265Z" fill="#070E20"/>
<path d="M54.0886 11.1722C54.0886 10.6274 53.647 10.1858 53.1022 10.1858C52.5574 10.1858 52.1157 10.6274 52.1157 11.1722C52.1157 11.7171 52.5574 12.1587 53.1022 12.1587C53.647 12.1587 54.0886 11.7171 54.0886 11.1722Z" fill="#070E20"/>
<path d="M74.0684 23.5879C75.1352 23.5879 76 22.7231 76 21.6563C76 20.5895 75.1352 19.7247 74.0684 19.7247C73.0017 19.7247 72.1369 20.5895 72.1369 21.6563C72.1369 22.7231 73.0017 23.5879 74.0684 23.5879Z" fill="#070E20"/>
<path d="M74.0684 28.8294C75.1352 28.8294 76 27.9646 76 26.8979C76 25.8311 75.1352 24.9663 74.0684 24.9663C73.0017 24.9663 72.1369 25.8311 72.1369 26.8979C72.1369 27.9646 73.0017 28.8294 74.0684 28.8294Z" fill="#070E20"/>
<path d="M74.0684 34.071C75.1352 34.071 76 33.2062 76 32.1394C76 31.0727 75.1352 30.2079 74.0684 30.2079C73.0017 30.2079 72.1369 31.0727 72.1369 32.1394C72.1369 33.2062 73.0017 34.071 74.0684 34.071Z" fill="#070E20"/>
<path d="M68.8282 28.8294C69.895 28.8294 70.7598 27.9646 70.7598 26.8979C70.7598 25.8311 69.895 24.9663 68.8282 24.9663C67.7614 24.9663 66.8966 25.8311 66.8966 26.8979C66.8966 27.9646 67.7614 28.8294 68.8282 28.8294Z" fill="#070E20"/>
<path d="M68.8282 34.071C69.895 34.071 70.7598 33.2062 70.7598 32.1394C70.7598 31.0727 69.895 30.2079 68.8282 30.2079C67.7614 30.2079 66.8966 31.0727 66.8966 32.1394C66.8966 33.2062 67.7614 34.071 68.8282 34.071Z" fill="#070E20"/>
<path d="M63.586 23.5879C64.6528 23.5879 65.5176 22.7231 65.5176 21.6563C65.5176 20.5895 64.6528 19.7247 63.586 19.7247C62.5192 19.7247 61.6545 20.5895 61.6545 21.6563C61.6545 22.7231 62.5192 23.5879 63.586 23.5879Z" fill="#070E20"/>
<path d="M63.5855 34.071C64.6523 34.071 65.5171 33.2062 65.5171 32.1395C65.5171 31.0727 64.6523 30.2079 63.5855 30.2079C62.5188 30.2079 61.654 31.0727 61.654 32.1395C61.654 33.2062 62.5188 34.071 63.5855 34.071Z" fill="#070E20"/>
<path d="M58.3453 18.3463C59.4121 18.3463 60.2769 17.4815 60.2769 16.4147C60.2769 15.3479 59.4121 14.4832 58.3453 14.4832C57.2785 14.4832 56.4137 15.3479 56.4137 16.4147C56.4137 17.4815 57.2785 18.3463 58.3453 18.3463Z" fill="#070E20"/>
<path d="M74.0702 17.4003C74.615 17.4003 75.0566 16.9586 75.0566 16.4138C75.0566 15.869 74.615 15.4274 74.0702 15.4274C73.5254 15.4274 73.0837 15.869 73.0837 16.4138C73.0837 16.9586 73.5254 17.4003 74.0702 17.4003Z" fill="#070E20"/>
<path d="M58.3446 33.1233C58.8894 33.1233 59.3311 32.6816 59.3311 32.1368C59.3311 31.592 58.8894 31.1504 58.3446 31.1504C57.7998 31.1504 57.3581 31.592 57.3581 32.1368C57.3581 32.6816 57.7998 33.1233 58.3446 33.1233Z" fill="#070E20"/>
<path d="M47.8636 6.91713C48.4084 6.91713 48.8501 6.47548 48.8501 5.93067C48.8501 5.38586 48.4084 4.94421 47.8636 4.94421C47.3188 4.94421 46.8772 5.38586 46.8772 5.93067C46.8772 6.47548 47.3188 6.91713 47.8636 6.91713Z" fill="#070E20"/>
<path d="M53.5942 32.14V32.1383C53.5942 31.8678 53.3749 31.6484 53.1044 31.6484H53.1026C52.8321 31.6484 52.6128 31.8678 52.6128 32.1383V32.14C52.6128 32.4106 52.8321 32.6299 53.1026 32.6299H53.1044C53.3749 32.6299 53.5942 32.4106 53.5942 32.14Z" fill="#070E20"/>
<path d="M74.5596 11.1737V11.172C74.5596 10.9015 74.3402 10.6821 74.0697 10.6821H74.068C73.7974 10.6821 73.5781 10.9015 73.5781 11.172V11.1737C73.5781 11.4443 73.7974 11.6636 74.068 11.6636H74.0697C74.3402 11.6636 74.5596 11.4443 74.5596 11.1737Z" fill="#070E20"/>
<path d="M39.3128 42.6208C39.3128 41.554 38.448 40.6892 37.3813 40.6892C36.3145 40.6892 35.4497 41.554 35.4497 42.6208C35.4497 43.6875 36.3145 44.5523 37.3813 44.5523C38.448 44.5523 39.3128 43.6875 39.3128 42.6208Z" fill="#070E20"/>
<path d="M44.5521 42.6208C44.5521 41.554 43.6873 40.6892 42.6205 40.6892C41.5538 40.6892 40.689 41.554 40.689 42.6208C40.689 43.6875 41.5538 44.5523 42.6205 44.5523C43.6873 44.5523 44.5521 43.6875 44.5521 42.6208Z" fill="#070E20"/>
<path d="M27.8836 68.8279C27.8836 68.2831 27.4419 67.8414 26.8971 67.8414C26.3523 67.8414 25.9106 68.2831 25.9106 68.8279C25.9106 69.3727 26.3523 69.8143 26.8971 69.8143C27.4419 69.8143 27.8836 69.3727 27.8836 68.8279Z" fill="#070E20"/>
<path d="M69.8132 53.1032C69.8132 52.5584 69.3716 52.1167 68.8268 52.1167C68.282 52.1167 67.8403 52.5584 67.8403 53.1032C67.8403 53.648 68.282 54.0896 68.8268 54.0896C69.3716 54.0896 69.8132 53.648 69.8132 53.1032Z" fill="#070E20"/>
</svg>
